/* XPM */
static char * bottom_right_inactive_xpm[] = {
"16 16 4 1",
" 	c None",
".	c #000000",
"+	c #CCCCCC",
"@	c #808080",
"............++@.",
"............++@.",
"............++@.",
"............++@.",
"............++@.",
"............++@.",
"............++@.",
"............++@.",
"............++@.",
"............++@.",
"............++@.",
"++++++++++++++@.",
"++++++++++++++@.",
"++++++++++++++@.",
"@@@@@@@@@@@@@@@.",
"................"};
