/* XPM */
static char * bottom_left_active_xpm[] = {
"16 17 5 1",
" 	c None",
".	c #808080",
"+	c #FFFFFF",
"@	c #CCCCCC",
"#	c #000000",
".+@@############",
".+@@############",
".+@@############",
".+@@############",
".+@@############",
".+@@############",
".+@@############",
".+@@############",
".+@@############",
".+@@############",
".+@@############",
".+@@############",
".+@@@@@@@@@@@@@@",
".+@@@@@@@@@@@@@@",
".+@@@@@@@@@@@@@@",
".+..............",
".###############"};
