/* XPM */
static char * hide_pressed_xpm[] = {
"22 27 4 1",
" 	c None",
".	c #808080",
"+	c #FFFFFF",
"@	c #CCCCCC",
"......................",
"++++++++++++++++++++++",
"@@@@@@@@@@@@@@@@@@@@@@",
"@@@@@@@@@@@@@@@@@@@@@@",
"@@@@@@@@@@@@@@@@@@@@@@",
"@@@@@@@@@@@@@@@@@@@@@@",
"@@@@@@@@@@@@@@@@@@@@@@",
"@@@@@@@@@@@@@@@@@@@@@@",
"@@@@@@@@@@@@@@@@@@@@@@",
"@@@@@@@@@@@@@@@@@@@@@@",
"@@@@@@@@@@@@@@@@@@@@@@",
"@@@@@@@@@@@@@@@@@@@@@@",
"@@@@@@.........+@@@@@@",
"@@@@@@.@@@@@@@@+@@@@@@",
"@@@@@@.@+++++.@+@@@@@@",
"@@@@@@.@+@@@@.@+@@@@@@",
"@@@@@@.@+@@@@.@+@@@@@@",
"@@@@@@.@+@@@@.@+@@@@@@",
"@@@@@@.@+@@@@.@+@@@@@@",
"@@@@@@.@+.....@+@@@@@@",
"@@@@@@.@@@@@@@@+@@@@@@",
"@@@@@@.+++++++++@@@@@@",
"@@@@@@@@@@@@@@@@@@@@@@",
"@@@@@@@@@@@@@@@@@@@@@@",
"@@@@@@@@@@@@@@@@@@@@@@",
"@@@@@@@@@@@@@@@@@@@@@@",
"@@@@@@@@@@@@@@@@@@@@@@"};
