/* XPM */
static char * left_active_xpm[] = {
"4 24 4 1",
" 	c None",
".	c #808080",
"+	c #FFFFFF",
"@	c #CCCCCC",
".+@@",
".+@@",
".+@@",
".+@@",
".+@@",
".+@@",
".+@@",
".+@@",
".+@@",
".+@@",
".+@@",
".+@@",
".+@@",
".+@@",
".+@@",
".+@@",
".+@@",
".+@@",
".+@@",
".+@@",
".+@@",
".+@@",
".+@@",
".+@@"};
