/* XPM */
static char * right_inactive_xpm[] = {
"4 24 4 1",
" 	c None",
".	c #CCCCCC",
"+	c #808080",
"@	c #000000",
"..+@",
"..+@",
"..+@",
"..+@",
"..+@",
"..+@",
"..+@",
"..+@",
"..+@",
"..+@",
"..+@",
"..+@",
"..+@",
"..+@",
"..+@",
"..+@",
"..+@",
"..+@",
"..+@",
"..+@",
"..+@",
"..+@",
"..+@",
"..+@"};
