/* XPM */
static char * title_2_active_xpm[] = {
"2 27 5 1",
" 	c None",
".	c #808080",
"+	c #FFFFFF",
"@	c #CCCCCC",
"#	c #2B00AA",
"..",
"++",
"@@",
"@@",
"@@",
"..",
".#",
".#",
".#",
".#",
".#",
".#",
".#",
".#",
".#",
".#",
".#",
".#",
".#",
".#",
".#",
".#",
".#",
".#",
".#",
".#",
".+"};
