/* XPM */
static char * title_3_active_xpm[] = {
"4 27 5 1",
" 	c None",
".	c #808080",
"+	c #FFFFFF",
"@	c #CCCCCC",
"#	c #2B00AA",
"....",
"++++",
"@@@@",
"@@@@",
"@@@@",
"....",
"####",
"####",
"####",
"####",
"####",
"####",
"####",
"####",
"####",
"####",
"####",
"####",
"####",
"####",
"####",
"####",
"####",
"####",
"####",
"####",
"++++"};
