/* XPM */
static char * title_3_inactive_xpm[] = {
"4 27 4 1",
" 	c None",
".	c #808080",
"+	c #FFFFFF",
"@	c #CCCCCC",
"....",
"++++",
"@@@@",
"@@@@",
"@@@@",
"....",
"....",
"....",
"....",
"....",
"....",
"....",
"....",
"....",
"....",
"....",
"....",
"....",
"....",
"....",
"....",
"....",
"....",
"....",
"....",
"....",
"...."};
