/* XPM */
static char * title_2_inactive_xpm[] = {
"2 27 4 1",
" 	c None",
".	c #808080",
"+	c #FFFFFF",
"@	c #CCCCCC",
"..",
"++",
"@@",
"@@",
"@@",
"..",
"..",
"..",
"..",
"..",
"..",
"..",
"..",
"..",
"..",
"..",
"..",
"..",
"..",
"..",
"..",
"..",
"..",
"..",
"..",
"..",
".."};
