/* XPM */
static char * top_right_active_xpm[] = {
"8 27 5 1",
" 	c None",
".	c #808080",
"+	c #000000",
"@	c #FFFFFF",
"#	c #CCCCCC",
".......+",
"@@@@@@.+",
"######.+",
"######.+",
"######.+",
"######.+",
"######.+",
"######.+",
"######.+",
"######.+",
"######.+",
"######.+",
"######.+",
"######.+",
"######.+",
"######.+",
"######.+",
"######.+",
"######.+",
"######.+",
"######.+",
"######.+",
"######.+",
"######.+",
"######.+",
"######.+",
"######.+"};
